<svg width="40" height="40" viewBox="0 0 40 40" fill="none" xmlns="http://www.w3.org/2000/svg">
<path d="M28.4135 15.5645C28.3711 15.4188 28.3792 15.2629 28.4367 15.1224C28.4941 14.9818 28.5974 14.8649 28.7298 14.7905L35.9385 10.7655L25.5596 9.82993C25.4727 9.82231 25.388 9.79758 25.3106 9.75715C25.2333 9.71672 25.1646 9.6614 25.1087 9.59436L20.0337 3.57031L14.8981 9.54051C14.8413 9.60828 14.7716 9.66404 14.693 9.70449C14.6144 9.74494 14.5285 9.76928 14.4404 9.77606L4.05481 10.5905L11.2231 14.6963C11.3545 14.7731 11.4564 14.8918 11.5125 15.0333C11.5687 15.1748 11.5758 15.331 11.5327 15.477L9.7087 21.5213L19.7039 18.5328C19.8481 18.4779 20.0062 18.4708 20.1548 18.5126L30.1702 21.629L28.4135 15.5645Z" fill="#BACED0"/>
<path d="M9.37878 36.4299L19.28 29.0861V20.0674L9.37878 23.0218V36.4299Z" fill="#BACED0"/>
<path d="M2.5 11.2568V21.2857L8.03267 25.9905V22.5241C8.03189 22.4388 8.0479 22.3542 8.07979 22.2751L10.0856 15.5982L2.5 11.2568Z" fill="#BACED0"/>
<path d="M20.626 29.0867L30.4933 36.4233C30.4934 33.7266 30.4931 25.6991 30.4933 23.1367L20.626 20.0742V29.0867Z" fill="#BACED0"/>
<path d="M29.8539 15.7056L31.7856 22.3758C31.8209 22.4589 31.8392 22.5481 31.8395 22.6383V25.4989L37.5 21.2585V11.4316L29.8539 15.7056Z" fill="#BACED0"/>
</svg>
