<svg width="48" height="48" viewBox="0 0 48 48" fill="none" xmlns="http://www.w3.org/2000/svg">
<g clip-path="url(#clip0_637_3004)">
<path d="M31.4483 3.31036V45.5173C31.4483 46.8885 30.3367 48 28.9655 48H2.48276C1.11157 48 0 46.8885 0 45.5173V3.31036H7.44828C7.90534 3.31036 8.27586 3.68089 8.27586 4.13795V4.96554C8.27586 5.4226 8.64639 5.79312 9.10345 5.79312H22.3448C22.8019 5.79312 23.1724 5.4226 23.1724 4.96554V4.13795C23.1724 3.68089 23.5429 3.31036 24 3.31036H31.4483Z" fill="#9ED26A"/>
<path d="M31.4483 2.48276V4.13793H24C23.5429 4.13793 23.1724 4.50845 23.1724 4.96552V5.7931C23.1724 6.25017 22.8019 6.62069 22.3448 6.62069H9.10345C8.64639 6.62069 8.27586 6.25017 8.27586 5.7931V4.96552C8.27586 4.50845 7.90534 4.13793 7.44828 4.13793H0V2.48276C0 1.11157 1.11157 0 2.48276 0H28.9655C30.3367 0 31.4483 1.11157 31.4483 2.48276Z" fill="#636C77"/>
<path d="M41.3795 33.9311C44.579 33.9311 47.1726 31.3374 47.1726 28.138C47.1726 24.9385 44.579 22.3448 41.3795 22.3448C38.1801 22.3448 35.5864 24.9385 35.5864 28.138C35.5864 31.3374 38.1801 33.9311 41.3795 33.9311Z" fill="#FDCD56"/>
<path d="M46.345 44.6896H36.414C35.4998 44.6896 34.7588 45.4307 34.7588 46.3448C34.7588 47.2589 35.4998 48 36.414 48H46.345C47.2591 48 48.0002 47.2589 48.0002 46.3448C48.0002 45.4307 47.2591 44.6896 46.345 44.6896Z" fill="#F5B945"/>
<path d="M46.345 41.3793H36.414C35.4998 41.3793 34.7588 42.1204 34.7588 43.0345C34.7588 43.9486 35.4998 44.6897 36.414 44.6897H46.345C47.2591 44.6897 48.0002 43.9486 48.0002 43.0345C48.0002 42.1204 47.2591 41.3793 46.345 41.3793Z" fill="#FDCD56"/>
<path d="M46.345 38.069H36.414C35.4998 38.069 34.7588 38.81 34.7588 39.7241C34.7588 40.6383 35.4998 41.3793 36.414 41.3793H46.345C47.2591 41.3793 48.0002 40.6383 48.0002 39.7241C48.0002 38.81 47.2591 38.069 46.345 38.069Z" fill="#F5B945"/>
<path d="M46.345 34.7586H36.414C35.4998 34.7586 34.7588 35.4997 34.7588 36.4138C34.7588 37.3279 35.4998 38.069 36.414 38.069H46.345C47.2591 38.069 48.0002 37.3279 48.0002 36.4138C48.0002 35.4997 47.2591 34.7586 46.345 34.7586Z" fill="#FDCD56"/>
<path d="M31.4483 13.2414V45.5173C31.4483 46.8885 30.3367 48 28.9655 48H2.48276C1.11157 48 0 46.8885 0 45.5173V4.13795H0.827586V3.31036H1.65517V43.8621C1.63737 44.5031 1.87505 45.1248 2.31588 45.5905C2.7567 46.0562 3.36453 46.3275 4.00552 46.3448H27.4428C27.639 46.347 27.8343 46.3191 28.0221 46.2621C29.0877 45.9554 29.8143 44.9708 29.7931 43.8621V13.2414H31.4483Z" fill="#636C77"/>
<path d="M31.4485 4.13794V45.5173C31.4485 46.8884 30.3369 48 28.9657 48H27.3105C28.6817 48 29.7933 46.8884 29.7933 45.5173V4.13794H31.4485Z" fill="#424852"/>
<path d="M31.4485 2.48276V4.13793H29.7933V2.48276C29.7933 1.11157 28.6817 0 27.3105 0H28.9657C30.3369 0 31.4485 1.11157 31.4485 2.48276Z" fill="#424852"/>
<path d="M31.4485 2.48276V4.13793H29.7933V2.48276C29.7933 1.11157 28.6817 0 27.3105 0H28.9657C30.3369 0 31.4485 1.11157 31.4485 2.48276Z" fill="#424852"/>
<path d="M13.2416 4.13796H12.414C11.9569 4.13796 11.5864 3.76744 11.5864 3.31037C11.5864 2.85331 11.9569 2.48279 12.414 2.48279H13.2416C13.6987 2.48279 14.0692 2.85331 14.0692 3.31037C14.0692 3.76744 13.6987 4.13796 13.2416 4.13796Z" fill="#424852"/>
<path d="M19.0345 4.13796H16.5517C16.0946 4.13796 15.7241 3.76744 15.7241 3.31037C15.7241 2.85331 16.0946 2.48279 16.5517 2.48279H19.0345C19.4915 2.48279 19.8621 2.85331 19.8621 3.31037C19.8621 3.76744 19.4915 4.13796 19.0345 4.13796Z" fill="#424852"/>
<path d="M42.2069 29.7931V25.6552C42.2068 25.3205 42.0052 25.0188 41.696 24.8908C41.3868 24.7627 41.0309 24.8335 40.7942 25.0701L39.9666 25.8977C39.73 26.1344 39.6592 26.4903 39.7873 26.7995C39.9153 27.1087 40.217 27.3103 40.5517 27.3104V29.7931C40.0946 29.7931 39.7241 30.1636 39.7241 30.6207C39.7241 31.0778 40.0946 31.4483 40.5517 31.4483H42.2069C42.6639 31.4483 43.0345 31.0778 43.0345 30.6207C43.0345 30.1636 42.6639 29.7931 42.2069 29.7931Z" fill="#F5B945"/>
<path d="M27.3105 8.27588H4.13808C3.22396 8.27588 2.48291 9.01692 2.48291 9.93105V43.0345C2.48291 43.9486 3.22396 44.6897 4.13808 44.6897H27.3105C28.2246 44.6897 28.9657 43.9486 28.9657 43.0345V9.93105C28.9657 9.01692 28.2246 8.27588 27.3105 8.27588ZM18.207 9.93105V11.5862H13.2415V9.93105H18.207ZM11.5864 9.93105V11.5862C11.5864 12.5003 12.3274 13.2414 13.2415 13.2414H18.207C19.1212 13.2414 19.8622 12.5003 19.8622 11.5862V9.93105H23.1726V14.8966H8.27601V9.93105H11.5864ZM19.599 16.5517C19.0148 17.5035 17.4837 18.2069 15.7243 18.2069C13.9648 18.2069 12.4338 17.5035 11.8495 16.5517H19.599ZM6.62084 9.93105V14.8966C6.62084 15.8107 7.36189 16.5517 8.27601 16.5517H10.0437C10.5668 18.4626 12.8741 19.8621 15.7243 19.8621C18.5745 19.8621 20.8818 18.4626 21.4048 16.5517H23.1726C24.0867 16.5517 24.8277 15.8107 24.8277 14.8966V9.93105H27.3105V25.6552H20.6153C20.2137 23.267 18.146 21.518 15.7243 21.518C13.3025 21.518 11.2349 23.267 10.8333 25.6552H4.13808V9.93105H6.62084ZM12.5315 25.6552C12.9031 24.1952 14.2177 23.1732 15.7243 23.1732C17.2309 23.1732 18.5455 24.1952 18.9171 25.6552H12.5315ZM18.9171 27.3104C18.5455 28.7704 17.2309 29.7923 15.7243 29.7923C14.2177 29.7923 12.9031 28.7704 12.5315 27.3104H18.9171ZM23.1726 38.069V43.0345H19.8622V41.3793C19.8622 40.4652 19.1212 39.7242 18.207 39.7242H13.2415C12.3274 39.7242 11.5864 40.4652 11.5864 41.3793V43.0345H8.27601V38.069H23.1726ZM11.8495 36.4138C12.4338 35.4621 13.9648 34.7586 15.7243 34.7586C17.4837 34.7586 19.0148 35.4621 19.599 36.4138H11.8495ZM18.207 43.0345H13.2415V41.3793H18.207V43.0345ZM24.8277 43.0345V38.069C24.8277 37.1549 24.0867 36.4138 23.1726 36.4138H21.4048C20.8818 34.5029 18.5745 33.1035 15.7243 33.1035C12.8741 33.1035 10.5668 34.5029 10.0437 36.4138H8.27601C7.36189 36.4138 6.62084 37.1549 6.62084 38.069V43.0345H4.13808V27.3104H10.8333C11.2349 29.6986 13.3025 31.4475 15.7243 31.4475C18.146 31.4475 20.2137 29.6986 20.6153 27.3104H27.3105V43.0345H24.8277Z" fill="#F4F6F8"/>
<path d="M41.3795 34.7586C37.723 34.7586 34.7588 31.7944 34.7588 28.1379C34.7588 24.4814 37.723 21.5172 41.3795 21.5172C45.036 21.5172 48.0002 24.4814 48.0002 28.1379C47.9961 31.7927 45.0343 34.7545 41.3795 34.7586ZM41.3795 23.1724C38.6371 23.1724 36.414 25.3955 36.414 28.1379C36.414 30.8803 38.6371 33.1034 41.3795 33.1034C44.1219 33.1034 46.345 30.8803 46.345 28.1379C46.3423 25.3967 44.1207 23.1751 41.3795 23.1724Z" fill="#F5B945"/>
</g>
<defs>
<clipPath id="clip0_637_3004">
<rect width="48" height="48" fill="white"/>
</clipPath>
</defs>
</svg>
