<svg width="24" height="24" viewBox="0 0 24 24" fill="none" xmlns="http://www.w3.org/2000/svg">
<path d="M12.5883 0.154107C12.2229 -0.051369 11.777 -0.051369 11.4116 0.154107L1.81164 5.55411C1.43378 5.76665 1.19995 6.16648 1.19995 6.6V17.4C1.19995 17.8336 1.43378 18.2334 1.81164 18.4459L11.4116 23.8459C11.777 24.0514 12.2229 24.0514 12.5883 23.8459L22.1883 18.4459C22.5661 18.2334 22.7999 17.8336 22.7999 17.4V6.6C22.7999 6.16648 22.5661 5.76665 22.1883 5.55411L12.5883 0.154107Z" fill="#0A626A"/>
<path fill-rule="evenodd" clip-rule="evenodd" d="M16 12C16 11.4477 15.5523 11 15 11H9C8.44772 11 8 11.4477 8 12C8 12.5523 8.44772 13 9 13H15C15.5523 13 16 12.5523 16 12Z" fill="white"/>
<path fill-rule="evenodd" clip-rule="evenodd" d="M12 8C11.4477 8 11 8.4477 11 9L11 15C11 15.5523 11.4477 16 12 16C12.5523 16 13 15.5523 13 15L13 9C13 8.4477 12.5523 8 12 8Z" fill="white"/>
</svg>
