<svg width="25" height="24" viewBox="0 0 25 24" fill="none" xmlns="http://www.w3.org/2000/svg">
<path d="M0.5 24H24.5V11.553H0.5V24ZM17.0236 14.1578H22.1337V15.7464L20.7661 17.9896C20.2143 18.8947 19.9226 19.9411 19.9226 21.0157V21.6134H18.5164V21.0157C18.5164 19.6587 18.8847 18.3374 19.5815 17.1944L20.5331 15.6334H18.4299V17.065H17.0236V14.1578ZM9.94498 14.1578H15.0551V15.7464L13.6875 17.9896C13.1357 18.8947 12.844 19.9411 12.844 21.0157V21.6134H11.4377V21.0157C11.4377 19.6588 11.806 18.3374 12.5029 17.1944L13.4545 15.6334H11.3512V17.065H9.94494L9.94498 14.1578ZM2.77255 14.1578H7.88258V15.7464L6.515 17.9896C5.96319 18.8947 5.67153 19.9411 5.67153 21.0157V21.6134H4.26528V21.0157C4.26528 19.6587 4.63358 18.3374 5.33042 17.1944L6.28203 15.6334H4.1788V17.065H2.77255V14.1578Z" fill="white"/>
<path d="M1.88764 9.46524L4.13286 8.93012L6.37808 9.46524L6.58691 7.05915L7.76567 4.98375L5.64955 4.03181L4.13286 2.21411L2.61617 4.03181L0.5 4.98375L1.67877 7.05915L1.88764 9.46524Z" fill="white"/>
<path d="M10.2548 7.25113L12.5 6.71601L14.7453 7.25113L14.9541 4.84504L16.1329 2.76974L14.0167 1.81775L12.5 0L10.9834 1.81775L8.86719 2.76974L10.046 4.84504L10.2548 7.25113Z" fill="white"/>
<path d="M18.622 9.46524L20.8672 8.93012L23.1124 9.46524L23.3213 7.05915L24.5 4.98375L22.3839 4.03181L20.8672 2.21411L19.3505 4.03181L17.2344 4.98375L18.4131 7.05915L18.622 9.46524Z" fill="white"/>
</svg>
